# AST/ASF file generated using VICON BodyLanguage
# -----------------------------------------------
:version 1.10
:name VICON
:units
  mass 1.0
  length 0.45
  angle deg
:documentation
   .ast/.asf automatically generated from VICON data using
   VICON BodyBuilder and BodyLanguage model FoxedUp or BRILLIANT.MOD
:root
   order TX TY TZ RX RY RZ
   axis XYZ
   position 0 0 0  
   orientation 0 0 0 
:bonedata
  begin
     id 1 
     name lhipjoint
     direction 0.602128 -0.715006 0.355257 
     length 2.21237 
     axis 0 0 0  XYZ
  end
  begin
     id 2 
     name lfemur
     direction 0.34202 -0.939693 0  
     length 6.71649  
     axis 0 0 20  XYZ
    dof rx ry rz
    limits (-160.0 20.0)
           (-70.0 70.0)
           (-60.0 70.0)
  end
  begin
     id 3 
     name ltibia
     direction 0.34202 -0.939693 0   
     length 6.97123   
     axis 0 0 20   XYZ
    dof rx
    limits (-10.0 170.0)
  end
  begin
     id 4 
     name lfoot
     direction 0.0655697 -0.180151 0.981451   
     length 1.80924   
     axis -90 7.62852e-016 20   XYZ
    dof rx rz
    limits (-45.0 90.0)
           (-70.0 20.0)
  end
  begin
     id 5 
     name ltoes
     direction 1.53545e-011 -4.21827e-011 1   
     length 0.916331   
     axis -90 7.62852e-016 20   XYZ
    dof rx
    limits (-90.0 20.0)
  end
  begin
     id 6 
     name rhipjoint
     direction -0.625414 -0.698792 0.347201   
     length 2.2637  
     axis 0 0 0  XYZ 
  end
  begin
     id 7 
     name rfemur
     direction -0.34202 -0.939693 0   
     length 7.07595   
     axis 0 0 -20   XYZ
    dof rx ry rz
    limits (-160.0 20.0)
           (-70.0 70.0)
           (-70.0 60.0)
  end
  begin
     id 8 
     name rtibia
     direction -0.34202 -0.939693 0   
     length 7.22924   
     axis 0 0 -20   XYZ
    dof rx
    limits (-10.0 170.0)
 end
 begin
     id 9 
     name rfoot
     direction -0.0766747 -0.210662 0.974547   
     length 1.98482  
     axis -90 -7.62852e-016 -20   XYZ
    dof rx rz
    limits (-45.0 90.0)
           (-20.0 70.0)
  end
  begin
     id 10 
     name rtoes
     direction -1.53532e-011 -4.21867e-011 1   
     length 0.999842   
     axis -90 -7.62852e-016 -20   XYZ
    dof rx
    limits (-90.0 20.0)
  end
  begin
     id 11 
     name lowerback
     direction -0.0224668 0.997354 -0.0691422   
     length 2.09945   
     axis 0 0 0   XYZ
    dof rx ry rz
    limits (-20.0 45.0)
           (-30.0 30.0)
           (-30.0 30.0)
  end
  begin
     id 12 
     name upperback
     direction 0.0134698 0.998451 -0.0539888   
     length 2.09758   
     axis 0 0 0   XYZ
    dof rx ry rz
    limits (-20.0 45.0)
           (-30.0 30.0)
           (-30.0 30.0)
  end
  begin
     id 13 
     name thorax
     direction 0.0241905 0.99948 -0.0213333   
     length 2.10428   
     axis 0 0 0   XYZ
    dof rx ry rz
    limits (-20.0 45.0)
           (-30.0 30.0)
           (-30.0 30.0)
  end
  begin
     id 14 
     name lowerneck
     direction -0.00866847 0.995978 0.0891737   
     length 1.3959   
     axis 0 0 0   XYZ
    dof rx ry rz
    limits (-20.0 45.0)
           (-30.0 30.0)
           (-30.0 30.0)
  end
  begin
     id 15 
     name upperneck
     direction 0.0680679 0.992203 0.104404   
     length 1.39452   
     axis 0 0 0   XYZ
    dof rx ry rz
    limits (-20.0 45.0)
           (-30.0 30.0)
           (-30.0 30.0)
  end
  begin
     id 16
     name head
     direction 0.0242216 0.999358 0.0264054  
     length 1.40433  
     axis 0 0 0   XYZ
    dof rx ry rz
    limits (-20.0 45.0)
           (-30.0 30.0)
           (-30.0 30.0)
  end
  begin
     id 17 
     name lclavicle
     direction 0.929368 0.362991 -0.0671771  
     length 3.04887  
     axis 0 0 0   XYZ
    dof ry rz
    limits (-20.0 10.0)
           (0.0 20.0)
  end
  begin
     id 18 
     name lhumerus
     direction 1 -4.48967e-011 -7.13741e-028   
     length 4.77195   
     axis -180 -30 -90   XYZ
    dof rx ry rz
    limits (-60.0 90.0)
           (-90.0 90.0)
           (-90.0 90.0)
  end
  begin
     id 19
     name lradius
     direction 1 -4.48977e-011 3.60404e-027   
     length 2.98444   
     axis -180 -30 -90   XYZ
    dof rx
    limits (-10.0 170.0)
  end
  begin
     id 20
     name lwrist
     direction 1 -4.48997e-011 7.54877e-027   
     length 1.49222   
     axis -7.18178e-015 90 90   XYZ
    dof ry
    limits (-180.0 0.0)
 end
  begin
     id 21 
     name lhand
     direction 1 -4.489e-011 1.51105e-026   
     length 0.992285   
     axis -9.63605e-015 90 90   XYZ
    dof rx rz
    limits (-90.0 90.0)
           (-45.0 45.0)
  end
  begin
     id 22 
     name lfingers
     direction 1 -4.48998e-011 3.01948e-026   
     length 0.800006   
     axis -1.92718e-014 90 90   XYZ
    dof rx
    limits (0.0 90.0)
  end
  begin
     id 23
     name lthumb
     direction 0.707107 -6.34881e-011 0.707107   
     length 1.14865   
     axis -90 45 -3.53137e-014   XYZ
    dof rx rz
    limits (-45.0 45.0)
           (-45.0 45.0)
  end
  begin
     id 24 
     name rclavicle
     direction -0.945672 0.324529 0.0196374   
     length 3.4236  
     axis 0 0 0   XYZ 
    dof ry rz
    limits (-10.0 20.0)
           (-20.0 0.0)
  end
  begin
     id 25 
     name rhumerus
     direction -1 -4.4896e-011 1.02757e-029  
     length 4.62052   
     axis -180 30 90   XYZ
    dof rx ry rz
    limits (-90.0 60.0)
           (-90.0 90.0)
           (-90.0 90.0)
  end
  begin
     id 26 
     name rradius
     direction -1 -4.48982e-011 3.85962e-027   
     length 2.95332   
     axis -180 30 90   XYZ
    dof rx
    limits (-10.0 170.0)
  end
  begin
     id 27 
     name rwrist
     direction -1 -4.48961e-011 7.55118e-027   
     length 1.47666   
     axis -7.18178e-015 -90 -90   XYZ
    dof ry
    limits (-180.0 0.0)
  end
  begin
     id 28
     name rhand
     direction -1 -4.48984e-011 1.50994e-026   
     length 0.990956   
     axis -9.63605e-015 -90 -90   XYZ
    dof rx rz
    limits (-90.0 90.0)
           (-45.0 45.0)
  end
  begin
     id 29
     name rfingers
     direction -1 -4.4892e-011 3.02158e-026   
     length 0.798934   
     axis -1.92718e-014 -90 -90   XYZ
    dof rx
    limits (0.0 90.0)
  end
  begin
     id 30
     name rthumb
     direction -0.707107 -6.34916e-011 0.707107   
     length 1.14711   
     axis -90 -45 3.53137e-014   XYZ
    dof rx rz
    limits (-45.0 45.0)
           (-45.0 45.0)
  end
:hierarchy
  begin
    root lhipjoint rhipjoint lowerback
    lhipjoint lfemur
    lfemur ltibia
    ltibia lfoot
    lfoot ltoes
    rhipjoint rfemur
    rfemur rtibia
    rtibia rfoot
    rfoot rtoes
    lowerback upperback
    upperback thorax
    thorax lowerneck lclavicle rclavicle
    lowerneck upperneck
    upperneck head
    lclavicle lhumerus
    lhumerus lradius
    lradius lwrist
    lwrist lhand lthumb
    lhand lfingers
    rclavicle rhumerus
    rhumerus rradius
    rradius rwrist
    rwrist rhand rthumb
    rhand rfingers
  end

#!OML:ASF H:\ManfredObstacles\Project 1\Capture day 1\Session 1\Male.ASF
:FULLY-SPECIFIED
:DEGREES
237
root 12.4367 16.3046 11.1463 -173.615 -8.67272 -177.141
lowerback -8.38172 -1.30775 -0.608904
upperback 3.5052 -1.88331 1.84885
thorax 8.50679 -1.03268 2.00332
lowerneck -3.74504 -0.484648 -4.91004
upperneck 12.5946 -1.59141 7.05914
head 4.45644 -0.817161 2.89303
rclavicle 1.35422e-015 -4.91992e-015
rhumerus -29.0936 -19.6185 -76.3162
rradius 29.9318
rwrist 27.5244
rhand -1.49398 -6.54784
rfingers 7.12502
rthumb 24.1587 -35.0465
lclavicle 1.35422e-015 -4.91992e-015
lhumerus -27.4655 13.6017 80.8298
lradius 21.6835
lwrist -28.5553
lhand -7.28461 6.96213
lfingers 7.12502
lthumb 18.5971 36.0932
rfemur -20.1254 -8.80188 25.9656
rtibia 28.1171
rfoot -14.9501 16.1943
rtoes 35.2541
lfemur -31.3927 0.203754 -16.6991
ltibia 62.7864
lfoot -4.22206 6.37014
ltoes -8.16315
238
root 12.436 16.2871 11.01 -173.875 -8.77931 -178.196
lowerback -7.94783 -1.15039 -1.53657
upperback 3.5966 -1.5193 1.38445
thorax 8.34851 -0.886907 2.0973
lowerneck -3.64806 -0.331966 -4.79588
upperneck 12.8092 -1.3858 6.80319
head 4.49088 -0.729391 2.80608
rclavicle 1.63174e-014 5.18704e-015
rhumerus -28.4742 -19.2608 -76.5526
rradius 29.7487
rwrist 27.9853
rhand -1.81545 -5.82449
rfingers 7.12502
rthumb 23.8504 -34.3638
lclavicle 1.63174e-014 5.18704e-015
lhumerus -27.7754 13.1079 80.7851
lradius 22.3196
lwrist -28.0327
lhand -7.13657 7.0702
lfingers 7.12502
lthumb 18.7395 36.1876
rfemur -19.3848 -8.47436 24.6969
rtibia 28.7551
rfoot -16.0703 15.7002
rtoes 34.9183
lfemur -31.8369 0.000552033 -17.8051
ltibia 61.0198
lfoot -5.31597 6.96597
ltoes -7.36332
239
root 12.4252 16.2693 10.8665 -173.806 -9.22959 -177.292
lowerback -8.28754 -0.999199 -0.433522
upperback 3.56443 -1.45832 1.5229
thorax 8.48208 -0.803089 1.62708
lowerneck -3.59038 -0.156407 -4.71059
upperneck 13.06 -1.12121 6.37659
head 4.54035 -0.621435 2.67404
rclavicle 1.58407e-016 6.60338e-015
rhumerus -27.7308 -18.7347 -76.7414
rradius 29.6092
rwrist 28.082
rhand -1.63046 -5.27622
rfingers 7.12502
rthumb 24.0278 -33.7922
lclavicle 1.58407e-016 6.60338e-015
lhumerus -28.4282 13.1373 80.7165
lradius 23.0945
lwrist -27.8976
lhand -7.2614 7.03677
lfingers 7.12502
lthumb 18.6194 36.1657
rfemur -19.173 -8.58714 25.6926
rtibia 29.1706
rfoot -17.0014 15.5448
rtoes 34.7353
lfemur -33.1721 0.0879462 -16.7045
ltibia 59.3725
lfoot -6.03788 7.10784
ltoes -6.58364
240
root 12.4233 16.2471 10.7395 -173.941 -9.54078 -177.157
lowerback -8.02733 -0.866844 -0.282545
upperback 3.56699 -1.29669 1.49554
thorax 8.3227 -0.715534 1.54114
lowerneck -3.60527 0.024265 -4.77113
upperneck 13.3739 -0.867413 6.1515
head 4.62379 -0.516066 2.62883
rclavicle 4.19311e-015 -1.56046e-014
rhumerus -26.9954 -17.8311 -77.0824
rradius 29.883
rwrist 27.1669
rhand -0.968614 -5.71672
rfingers 7.12502
rthumb 24.6623 -34.1475
lclavicle 4.19311e-015 -1.56046e-014
lhumerus -28.6359 13.3814 80.639
lradius 23.3307
lwrist -28.1125
lhand -7.58341 6.78594
lfingers 7.12502
lthumb 18.3096 35.9442
rfemur -18.6821 -8.20944 25.8134
rtibia 29.5333
rfoot -18.043 14.9544
rtoes 34.4773
lfemur -34.0597 0.375666 -16.44
ltibia 57.475
lfoot -6.54499 7.1797
ltoes -6.04473
241
root 12.4146 16.2291 10.6013 -174.003 -10.0464 -177.165
lowerback -8.00469 -0.77137 -0.225829
upperback 3.59495 -1.16669 1.40059
thorax 8.33191 -0.645667 1.42869
lowerneck -3.54782 0.179622 -4.75096
upperneck 13.5901 -0.653796 5.95317
head 4.66786 -0.426198 2.57581
rclavicle 3.46941e-014 3.72721e-015
rhumerus -26.3545 -17.1983 -77.3726
rradius 30.16
rwrist 26.59
rhand -0.503308 -6.18545
rfingers 7.12502
rthumb 25.1082 -34.5546
lclavicle 3.46941e-014 3.72721e-015
lhumerus -28.2965 13.5615 80.6128
lradius 23.1128
lwrist -28.3886
lhand -7.5985 6.6608
lfingers 7.12502
lthumb 18.2951 35.8204
rfemur -18.0721 -8.14611 25.7768
rtibia 29.6395
rfoot -18.9324 14.4618
rtoes 33.7636
lfemur -34.8539 0.614207 -16.3891
ltibia 55.4878
lfoot -6.8916 7.21046
ltoes -6.85077
242
root 12.4024 16.2176 10.4613 -174.023 -10.6349 -177.276
lowerback -8.04036 -0.708051 -0.259528
upperback 3.61427 -1.06606 1.28068
thorax 8.36855 -0.593607 1.33581
lowerneck -3.50009 0.320435 -4.6252
upperneck 13.8411 -0.445252 5.57046
head 4.72552 -0.344374 2.44779
rclavicle -5.1684e-015 -1.04362e-014
rhumerus -25.9132 -16.7372 -77.5729
rradius 30.2399
rwrist 26.5514
rhand -0.608785 -6.08748
rfingers 7.12502
rthumb 25.0071 -34.4707
lclavicle -5.1684e-015 -1.04362e-014
lhumerus -28.0048 13.844 80.5699
lradius 22.8404
lwrist -28.6796
lhand -7.63307 6.6733
lfingers 7.12502
lthumb 18.2619 35.8361
rfemur -17.458 -8.28711 25.6416
rtibia 29.7103
rfoot -19.76 13.9942
rtoes 32.2515
lfemur -35.5614 0.812045 -16.4679
ltibia 53.3329
lfoot -7.03159 7.19897
ltoes -7.96668
243
root 12.3896 16.2071 10.3237 -174.159 -11.1616 -177.181
lowerback -7.93404 -0.624257 -0.119214
upperback 3.63082 -0.965047 1.22054
thorax 8.31776 -0.534903 1.20936
lowerneck -3.55187 0.493388 -4.46578
upperneck 14.2277 -0.191948 5.11696
head 4.84078 -0.244768 2.2956
rclavicle -3.95085e-015 -1.68967e-015
rhumerus -25.7589 -16.3452 -77.7702
rradius 30.4573
rwrist 26.4788
rhand -0.727011 -5.95424
rfingers 7.12502
rthumb 24.8938 -34.3532
lclavicle -3.95085e-015 -1.68967e-015
lhumerus -28.0573 14.1219 80.4847
lradius 22.7324
lwrist -28.8872
lhand -7.73886 6.75132
lfingers 7.12502
lthumb 18.1601 35.9236
rfemur -16.7004 -8.34937 25.7214
rtibia 29.661
rfoot -20.389 13.5575
rtoes 31.4868
lfemur -36.0854 1.23681 -16.339
ltibia 51.0668
lfoot -6.92967 6.9914
ltoes -7.92641
244
root 12.371 16.1939 10.1789 -174.262 -11.7971 -176.676
lowerback -8.05019 -0.552467 0.42701
upperback 3.63966 -0.941169 1.28749
thorax 8.38688 -0.496862 0.975332
lowerneck -3.59105 0.678893 -4.36727
upperneck 14.5511 0.0828205 4.72264
head 4.93498 -0.134348 2.1728
rclavicle -1.61388e-014 8.94531e-015
rhumerus -25.5421 -16.2252 -77.9075
rradius 30.6382
rwrist 26.5277
rhand -0.48926 -6.10755
rfingers 7.12502
rthumb 25.1217 -34.4748
lclavicle -1.61388e-014 8.94531e-015
lhumerus -28.1351 14.2604 80.4346
lradius 22.598
lwrist -29.05
lhand -7.50859 6.88124
lfingers 7.12502
lthumb 18.3816 36.0327
rfemur -15.95 -8.52559 26.2423
rtibia 29.4521
rfoot -20.7918 13.3284
rtoes 31.8428
lfemur -36.6629 1.86045 -15.861
ltibia 48.7614
lfoot -6.44781 6.60979
ltoes -8.04742
245
root 12.3487 16.1884 10.0319 -174.312 -12.4085 -176.745
lowerback -8.14025 -0.520601 0.360903
upperback 3.67966 -0.885977 1.22309
thorax 8.48172 -0.471001 0.952211
lowerneck -3.61199 0.870059 -4.37472
upperneck 14.8038 0.364334 4.45071
head 5.0045 -0.0184529 2.10576
rclavicle -2.6662e-014 7.85199e-015
rhumerus -25.1815 -16.073 -78.0039
rradius 30.6179
rwrist 26.4777
rhand -0.317549 -6.41515
rfingers 7.12502
rthumb 25.2862 -34.7593
lclavicle -2.6662e-014 7.85199e-015
lhumerus -28.2231 14.2019 80.4359
lradius 22.5265
lwrist -29.0445
lhand -7.21015 6.79228
lfingers 7.12502
lthumb 18.6687 35.9164
rfemur -15.0792 -8.69198 26.1146
rtibia 29.1318
rfoot -21.1273 13.0906
rtoes 32.2638
lfemur -37.044 2.33935 -16.0234
ltibia 46.3963
lfoot -6.0133 6.34575
ltoes -8.78586
246
root 12.3263 16.1869 9.88766 -174.443 -12.9394 -176.816
lowerback -8.07856 -0.450073 0.241284
upperback 3.72462 -0.771647 1.15441
thorax 8.49291 -0.419749 0.964774
lowerneck -3.6575 1.04088 -4.38941
upperneck 15.1195 0.59971 4.27563
head 5.09978 0.0774671 2.06843
rclavicle -3.07371e-014 1.11319e-014
rhumerus -24.9934 -16.0622 -78.0739
rradius 30.6597
rwrist 26.4661
rhand -0.3037 -6.53674
rfingers 7.12502
rthumb 25.2994 -34.879
lclavicle -3.07371e-014 1.11319e-014
lhumerus -28.2879 14.1816 80.4532
lradius 22.4054
lwrist -28.9999
lhand -7.11691 6.65681
lfingers 7.12502
lthumb 18.7584 35.7723
rfemur -14.1013 -8.68293 25.9865
rtibia 28.7447
rfoot -21.5345 12.5642
rtoes 32.2099
lfemur -37.2643 2.69878 -16.1152
ltibia 44.0571
lfoot -5.89638 6.39145
ltoes -9.48332
247
root 12.3022 16.177 9.74752 -174.646 -13.445 -176.601
lowerback -7.89664 -0.315243 0.411952
upperback 3.74777 -0.609306 1.13279
thorax 8.40674 -0.331423 0.87127
lowerneck -3.80355 1.16101 -4.33864
upperneck 15.4894 0.765773 4.09054
head 5.23314 0.142839 2.01483
rclavicle -1.70955e-014 -1.98785e-015
rhumerus -25.031 -16.257 -78.1529
rradius 30.8309
rwrist 26.5056
rhand -0.482599 -6.36338
rfingers 7.12502
rthumb 25.128 -34.7297
lclavicle -1.70955e-014 -1.98785e-015
lhumerus -28.237 14.5146 80.3808
lradius 22.0113
lwrist -29.4303
lhand -7.04192 6.70138
lfingers 7.12502
lthumb 18.8305 35.8099
rfemur -13.1352 -8.54537 26.1928
rtibia 28.3684
rfoot -22.1211 11.8523
rtoes 31.3768
lfemur -37.4316 3.16459 -15.8978
ltibia 41.7286
lfoot -5.80136 6.76681
ltoes -9.20115
